<svg id="Camada_1" data-name="Camada 1" xmlns="http://www.w3.org/2000/svg" viewBox="0 0 218.19 81.63"><defs><style>.cls-1{fill:#2b307b;}.cls-2{fill:#ef7854;}</style></defs><path class="cls-1" d="M84.9,108.75c0-2.4,1.23-3.6,3.67-3.6H93V97.94H86.23c-3.44,0-6.06.93-7.88,2.79a10.57,10.57,0,0,0-2.71,7.69v3.89H69.81v8.14h5.8v26H84.9v-26H93v-8.14H84.9Zm-25.41,5.39a18.28,18.28,0,0,0-17.86-.08,16.41,16.41,0,0,0-6.22,6.34,19,19,0,0,0,0,18,16.6,16.6,0,0,0,6.23,6.35,18,18,0,0,0,19.1-.91A17,17,0,0,0,67,135.13H57.56c-.69,1.21-2.65,3.64-7.07,3.64A8.14,8.14,0,0,1,45,137a7.82,7.82,0,0,1-2.73-5H67.58a19.23,19.23,0,0,0,.18-2.65,18.26,18.26,0,0,0-2.14-8.79A16.25,16.25,0,0,0,59.49,114.14ZM42.55,125.25a8.3,8.3,0,0,1,7.94-5.53,8.59,8.59,0,0,1,8,5.53Zm126.6,9.18h0v-14h8.71v-8.14h-8.71V100.47l-9.3,3V135q0,5.37,3,8.44t8.66,3.07H178v-8.11h-4.87C170.48,138.38,169.15,137.06,169.15,134.43Zm45.93-5.15a18.26,18.26,0,0,0-2.14-8.79,16.25,16.25,0,0,0-6.13-6.35,18.28,18.28,0,0,0-17.86-.08,16.41,16.41,0,0,0-6.22,6.34,19,19,0,0,0,0,18,16.6,16.6,0,0,0,6.23,6.35,18,18,0,0,0,19.1-.91,16.93,16.93,0,0,0,6.28-8.68h-9.48c-.69,1.21-2.65,3.64-7.07,3.64a8.14,8.14,0,0,1-5.45-1.82,7.82,7.82,0,0,1-2.73-5H214.9A19.23,19.23,0,0,0,215.08,129.28Zm-25.21-4a8.3,8.3,0,0,1,7.94-5.53,8.59,8.59,0,0,1,8,5.53Zm-67.82-11.2a19.78,19.78,0,0,0-18.44,0,16.59,16.59,0,0,0-6.48,6.31,18.55,18.55,0,0,0,0,18,16.73,16.73,0,0,0,6.48,6.34,19.71,19.71,0,0,0,18.44,0,16.83,16.83,0,0,0,6.49-6.34,18.4,18.4,0,0,0,0-18A16.71,16.71,0,0,0,122.05,114.05ZM119.25,136a9.28,9.28,0,0,1-12.8,0,9.92,9.92,0,0,1,0-13.19,9.31,9.31,0,0,1,12.8,0,9.95,9.95,0,0,1,0,13.19Zm18.84-20.61c-2,2-3,4.86-3,8.44v22.67h9.3V124.4q0-3.95,4-4h7.38v-8.14h-9.05Q141.08,112.31,138.09,115.38Z" transform="translate(3.11 -65.4)"/><path class="cls-1" d="M14.88,121.94l-7.53-7.55a4.27,4.27,0,0,1-1.23-3v-7.85h8.76Z" transform="translate(3.11 -65.4)"/><path class="cls-1" d="M31.36,138.38v8.11H17.76c-3.78,0-6.67-1-8.66-3.07a11,11,0,0,1-2.94-6l0-.48,8.76-8.76v6.3h0c0,2.63,1.33,3.95,4,3.95Z" transform="translate(3.11 -65.4)"/><path class="cls-2" d="M2.91,134.6H.71L10.28,125,.71,115.47h2.2a2.16,2.16,0,0,1,1.52.63L13.37,125l-8.9,8.9A2.24,2.24,0,0,1,2.91,134.6Z" transform="translate(3.11 -65.4)"/><path class="cls-2" d="M-1,130.73H-3.1l5.7-5.68-5.71-5.71H-1A2.2,2.2,0,0,1,.59,120l5,5.07-5,5A2.19,2.19,0,0,1-1,130.73Z" transform="translate(3.11 -65.4)"/><path class="cls-1" d="M5.66,65.4H7.54v7.76h9.74V65.4h1.88V82.91H17.28v-8H7.54v8H5.66Z" transform="translate(3.11 -65.4)"/><path class="cls-1" d="M24.58,72.47a6.07,6.07,0,0,1,8.67,0,6.43,6.43,0,0,1,0,8.88,6.12,6.12,0,0,1-8.67,0,6.4,6.4,0,0,1,0-8.88ZM32,73.63a4.23,4.23,0,0,0-6.18,0,4.8,4.8,0,0,0,0,6.55,4.22,4.22,0,0,0,6.18,0,4.81,4.81,0,0,0,0-6.56Z" transform="translate(3.11 -65.4)"/><path class="cls-1" d="M44.15,73.53a2.4,2.4,0,0,0-.29-.34,3.17,3.17,0,0,0-.87-.55,3.06,3.06,0,0,0-1.46-.35,2.45,2.45,0,0,0-1.63.52A1.58,1.58,0,0,0,39.28,74,1.32,1.32,0,0,0,40,75.19a5.69,5.69,0,0,0,1.63.71c.63.17,1.27.37,1.9.59a3.84,3.84,0,0,1,1.62,1.1,2.84,2.84,0,0,1,.67,2,3.28,3.28,0,0,1-1.18,2.58,4.67,4.67,0,0,1-3.19,1,5.53,5.53,0,0,1-1.6-.22,5,5,0,0,1-1.24-.52,7,7,0,0,1-.85-.62,3.72,3.72,0,0,1-.53-.53L37,81l1.26-1.25.13.19a4.93,4.93,0,0,0,.39.42,4.69,4.69,0,0,0,.64.54,4.26,4.26,0,0,0,.88.42,3.4,3.4,0,0,0,1.08.18,3,3,0,0,0,2-.56A1.79,1.79,0,0,0,44,79.54a1.44,1.44,0,0,0-.68-1.22,5.5,5.5,0,0,0-1.62-.74c-.63-.18-1.27-.39-1.9-.61a4,4,0,0,1-1.63-1.06A2.66,2.66,0,0,1,37.52,74a3.06,3.06,0,0,1,1.14-2.36,4.15,4.15,0,0,1,2.87-1,5.69,5.69,0,0,1,1.36.17,4.55,4.55,0,0,1,1.09.4,5.88,5.88,0,0,1,.76.49c.23.17.39.3.49.39l.18.19Z" transform="translate(3.11 -65.4)"/><path class="cls-1" d="M50.65,88.16H48.9V70.91h1.75v1.88l.17-.23c.09-.1.26-.27.53-.52a5.54,5.54,0,0,1,.86-.65,5.17,5.17,0,0,1,1.19-.51,5,5,0,0,1,1.49-.23,5.39,5.39,0,0,1,4,1.85,6.51,6.51,0,0,1,0,8.82,5.37,5.37,0,0,1-4,1.83,4.91,4.91,0,0,1-1.48-.22,4.8,4.8,0,0,1-1.2-.52,7,7,0,0,1-.85-.62,4.56,4.56,0,0,1-.54-.53L50.65,81Zm1.31-8a3.93,3.93,0,0,0,2.93,1.39,3.68,3.68,0,0,0,2.78-1.35,5,5,0,0,0,0-6.54,3.68,3.68,0,0,0-2.78-1.35A4,4,0,0,0,52,73.67a4.65,4.65,0,0,0,0,6.47Z" transform="translate(3.11 -65.4)"/><path class="cls-1" d="M63.84,66.11a1.12,1.12,0,1,1-.33.8A1.06,1.06,0,0,1,63.84,66.11Zm-.07,4.8h1.74v12H63.77Z" transform="translate(3.11 -65.4)"/><path class="cls-1" d="M70.64,66.91h1.62v4h2.63v1.62H72.26v7.13c0,1.25.55,1.88,1.63,1.87a3.13,3.13,0,0,0,.8-.1,5.51,5.51,0,0,0,.6-.17l.22-.1v1.63a3.6,3.6,0,0,1-1.7.36,3.18,3.18,0,0,1-2.42-.91,3.56,3.56,0,0,1-.87-2.58V72.53H68.26V70.91h1.38c.67,0,1-.42,1-1.25Z" transform="translate(3.11 -65.4)"/><path class="cls-1" d="M85.26,75.28a2.86,2.86,0,0,0-3-3,3.84,3.84,0,0,0-1.79.43,4,4,0,0,0-1.21.89l-.38.42-1.12-1.12c0-.06.11-.15.2-.25a6.18,6.18,0,0,1,.56-.54,8.7,8.7,0,0,1,.91-.69,5.77,5.77,0,0,1,2.83-.78A4.67,4.67,0,0,1,85.66,72,4.46,4.46,0,0,1,87,75.28v7.63H85.26V81.28l-.15.21c-.07.08-.22.23-.46.45a4.88,4.88,0,0,1-.78.57,4.37,4.37,0,0,1-1.09.45,5,5,0,0,1-1.4.19,4.45,4.45,0,0,1-3-1.06,3.15,3.15,0,0,1-1.23-2.43A3.31,3.31,0,0,1,78,77.24a4.49,4.49,0,0,1,2.6-1.2Zm-1.09,5.14a3.92,3.92,0,0,0,1.09-2.88v-.76l-4.12.76c-1.5.28-2.25,1-2.26,2.12A1.64,1.64,0,0,0,79.55,81a2.87,2.87,0,0,0,1.83.53A3.75,3.75,0,0,0,84.17,80.42Z" transform="translate(3.11 -65.4)"/><path class="cls-1" d="M92.87,82.91H91.12V65.4h1.75Z" transform="translate(3.11 -65.4)"/></svg>