<?xml version="1.0" encoding="UTF-8"?><svg id="Camada_2" xmlns="http://www.w3.org/2000/svg" xmlns:xlink="http://www.w3.org/1999/xlink" viewBox="0 0 390.35 95.42"><defs><linearGradient id="linear-gradient" x1="0" y1="48.51" x2="82.53" y2="48.51" gradientUnits="userSpaceOnUse"><stop offset="0" stop-color="#6fbcbd"/><stop offset=".13" stop-color="#6fbcbd"/><stop offset=".36" stop-color="#3cb5de"/><stop offset=".49" stop-color="#24b2ee"/><stop offset=".54" stop-color="#21a3de"/><stop offset=".65" stop-color="#197eb6"/><stop offset=".78" stop-color="#0f477a"/><stop offset="1" stop-color="#0f477a"/></linearGradient></defs><g id="Layer_1"><path d="m189.51,25.47h3.11V7.47h-3.11v18Zm-6.33-4.33c0,.23,0,.46-.08.68-.3.89-1.19,1.7-2.46,1.7-.99,0-1.77-.56-1.77-1.77,0-1.87,2.1-2.33,4.3-2.3v1.7Zm3.04-3.06c0-2.71-1.14-5.21-5.09-5.21-1.95,0-3.54.53-4.45,1.09l.61,2.03c.83-.53,2.1-.91,3.32-.91,2.18,0,2.51,1.34,2.51,2.15v.2c-4.56-.03-7.32,1.57-7.32,4.66,0,1.87,1.39,3.67,3.87,3.67,1.62,0,2.91-.68,3.64-1.65l.3,1.37h2.81c-.15-.76-.2-1.85-.2-2.96v-4.43Zm-17.95-7.24v2.3h-1.75v2.33h1.75v5.77c0,1.62.3,2.76.99,3.47.58.63,1.52,1.01,2.68,1.01.96,0,1.8-.15,2.25-.33l-.05-2.35c-.35.1-.66.13-1.21.13-1.19,0-1.59-.76-1.59-2.28v-5.42h2.96v-2.33h-2.96v-3.16l-3.06.86Zm-5.42.53c1.06,0,1.75-.76,1.75-1.67-.03-.96-.68-1.7-1.75-1.7s-1.75.73-1.75,1.7c0,.91.68,1.67,1.72,1.67h.03Zm1.54,14.1v-12.33h-3.11v12.33h3.11Zm-14.81-7.06c0-.25.05-.53.1-.78.33-1.37,1.52-2.3,2.81-2.3,2,0,3.06,1.77,3.06,3.95,0,2.43-1.16,4.08-3.14,4.08-1.34,0-2.43-.91-2.76-2.18-.05-.28-.08-.56-.08-.86v-1.9Zm-3.11,12.07h3.11v-6.38c.68.99,1.97,1.65,3.52,1.65,2.81,0,5.62-2.15,5.62-6.61,0-3.85-2.35-6.28-5.19-6.28-1.87,0-3.32.79-4.23,2.18l-.2-1.9h-2.73c.05,1.16.1,2.48.1,4.1v13.24Zm-11.31-5.62c.91.51,2.25.86,3.75.86,3.27,0,5.01-1.62,5.01-3.87-.03-1.82-1.04-2.96-3.29-3.75-1.57-.58-2.15-.94-2.15-1.72s.61-1.32,1.72-1.32,2.1.41,2.61.71l.63-2.18c-.73-.41-1.92-.73-3.29-.73-2.86,0-4.66,1.67-4.66,3.85,0,1.47.99,2.78,3.39,3.59,1.52.56,2.03.96,2.03,1.8s-.61,1.39-1.97,1.39c-1.11,0-2.46-.48-3.14-.91l-.63,2.28Zm-8.05-1.37c-1.85,0-3.04-1.8-3.04-4.18,0-2.05.89-4.2,3.09-4.2s2.99,2.23,2.99,4.15c0,2.51-1.24,4.23-3.01,4.23h-.03Zm-.05,2.25c3.11,0,6.3-2.02,6.3-6.56,0-3.75-2.46-6.33-6.13-6.33s-6.38,2.48-6.38,6.53,2.71,6.35,6.18,6.35h.02Zm-22.3-17.34v17.06h3.11v-7.52h7.21v7.52h3.11V8.4h-3.11v6.83h-7.21v-6.83h-3.11Z" style="fill:#6fbcbd; fill-rule:evenodd;"/><path d="m373.46,76.23c-6.03,0-10.29-5.68-10.29-13.2,0-6.53,3.19-13.34,10.5-13.34s10.29,7.31,10.29,13.13c0,7.81-4.47,13.41-10.43,13.41h-.07Zm-.14,4.68c8.16,0,17.03-5.54,17.03-18.31,0-10.43-6.67-17.6-16.53-17.6s-17.03,6.74-17.03,18.24c0,10.86,7.24,17.67,16.46,17.67h.07Zm-52.22-.78h6.24v-20.72c0-.99.14-2.13.43-2.91,1.13-3.48,4.33-6.39,8.37-6.39,5.89,0,7.95,4.68,7.95,10.22v19.8h6.24v-20.51c0-11.78-7.38-14.62-12.13-14.62-5.68,0-9.65,3.19-11.35,6.39h-.14l-.35-5.61h-5.54c.21,2.84.28,5.68.28,9.3v25.05Zm-14.89-11.57c0,.64-.07,1.35-.28,1.99-.99,2.91-3.9,5.75-8.44,5.75-3.12,0-5.82-1.85-5.82-5.96,0-6.67,7.73-7.88,14.55-7.73v5.96Zm6.1-9.51c0-6.88-2.55-14.05-13.13-14.05-4.33,0-8.52,1.21-11.35,2.98l1.42,4.19c2.41-1.63,5.75-2.55,9.01-2.55,7.03-.07,7.81,5.11,7.81,7.95v.71c-13.27-.07-20.65,4.47-20.65,12.77,0,4.97,3.55,9.86,10.5,9.86,4.9,0,8.66-2.41,10.5-5.11h.21l.57,4.33h5.61c-.35-2.34-.5-5.25-.5-8.23v-12.84Zm-45.05-19.59v6.32h-5.32v4.75h5.32v18.66c0,4.05.71,7.1,2.41,9.01,1.49,1.63,3.83,2.62,6.74,2.62,2.41,0,4.33-.43,5.54-.85l-.28-4.76c-.92.28-1.92.43-3.62.43-3.48,0-4.68-2.41-4.68-6.67v-18.45h8.94v-4.75h-8.94v-8.23l-6.1,1.92Zm-30.65,38.96c2.41,1.42,5.89,2.41,9.65,2.41,8.02,0,12.77-4.26,12.77-10.36,0-5.11-3.12-8.09-9.01-10.29-4.47-1.77-6.46-3.05-6.46-5.89,0-2.55,1.99-4.68,5.68-4.68,3.19,0,5.68,1.21,7.03,1.99l1.49-4.47c-1.84-1.21-4.9-2.13-8.37-2.13-7.31,0-11.85,4.54-11.85,10.08,0,4.04,2.91,7.45,9.16,9.72,4.54,1.7,6.31,3.27,6.31,6.25s-2.13,5.11-6.6,5.11c-3.12,0-6.39-1.28-8.3-2.41l-1.49,4.68Zm-10-38.39c2.41,0,3.9-1.77,3.9-3.83,0-2.2-1.56-3.9-3.83-3.9s-3.9,1.7-3.9,3.9c0,2.06,1.49,3.83,3.76,3.83h.07Zm3.19,40.09v-34.35h-6.24v34.35h6.24Zm-21.78,0h6.24V29.75h-6.24v50.38Zm-9.15-34.35h-6.24v21c0,1.21-.21,2.34-.57,3.19-1.14,2.84-4.05,5.75-8.23,5.75-5.61,0-7.66-4.47-7.66-11v-18.95h-6.24v20.08c0,11.99,6.46,15.04,11.85,15.04,6.1,0,9.79-3.62,11.35-6.39h.14l.36,5.61h5.53c-.21-2.7-.28-5.82-.28-9.44v-24.91Zm-43.63,22.78c0,.64-.07,1.35-.28,1.99-.99,2.91-3.9,5.75-8.44,5.75-3.12,0-5.82-1.85-5.82-5.96,0-6.67,7.73-7.88,14.55-7.73v5.96Zm6.1-9.51c0-6.88-2.55-14.05-13.13-14.05-4.33,0-8.52,1.21-11.35,2.98l1.42,4.19c2.41-1.63,5.75-2.55,9.01-2.55,7.03-.07,7.81,5.11,7.81,7.95v.71c-13.27-.07-20.65,4.47-20.65,12.77,0,4.97,3.55,9.86,10.5,9.86,4.9,0,8.66-2.41,10.5-5.11h.21l.57,4.33h5.61c-.36-2.34-.5-5.25-.5-8.23v-12.84Zm-52.5-21.72c1.06-.28,3.12-.49,5.82-.49,6.81,0,11.28,3.04,11.28,9.33s-4.54,10.11-11.99,10.11c-2.06,0-3.76-.14-5.11-.5v-18.45Zm-6.17,42.79h6.17v-19.3c1.42.35,3.12.43,4.97.43,6.03,0,11.35-1.77,14.62-5.25,2.48-2.47,3.76-5.87,3.76-10.18s-1.63-7.64-4.26-9.9c-2.84-2.55-7.31-3.97-13.41-3.97-4.97,0-8.87.43-11.85.99v47.19Z" style="fill:#0f477a; fill-rule:evenodd;"/><g><path d="m82.17,75.02c0-2.91,2.36-5.28,5.28-5.28s5.28,2.36,5.28,5.28-2.36,5.28-5.28,5.28-5.28-2.36-5.28-5.28Zm-16.9-40.61c-12.69,0-24.33.25-32.58,7.56-4.38,3.88-6.16,10.47-2.46,15.86,5.31,7.75,14.48,5.54,21.1.62,9.47-7.05,12.77-14.84,13.94-24.04Zm30.26-3.69c.15,7.76-3.07,14.71-6.63,20.96-5.86,10.3-16.9,25.27-6.37,31.52l-3.53-.21c-6.73-6.59-4.31-18.77,3.21-32.71,3.24-6.01,5.93-10.94,6.72-15.9h-16.92c-1.02,10.99-8.78,22.89-21.75,30.68-6.93,4.16-19.87,3.85-25.11-5.28-3.84-6.68-3.16-16.08,4.78-22.14,9.76-7.45,22.73-7.05,30-7.05,2.08,0,3.4.04,5.41.04h23.95c.56-15.3-10.92-28.17-17.04-30.64h4.38c10.8,7.58,18.91,17.28,18.91,30.72Z" style="fill:#0f477a;"/><path d="m82.53,83.2c-9.03,8.19-20.28,12.22-34.72,12.22C18.21,95.42,0,76.74,0,45.64,0,23.95,17.73,1.61,41.63,1.61c17.92,0,30.53,15.28,30.53,29.02h-6.83c0-7.66-7.5-23.79-24-23.79S11.61,23.2,11.61,45.52c0,28.9,30.87,57.94,67.38,37.48l3.53.21Z" style="fill:url(#linear-gradient);"/></g></g></svg>