<svg width="139" height="25" viewBox="0 0 139 25" fill="none" xmlns="http://www.w3.org/2000/svg">
<path d="M17.0327 9.31508C15.5036 9.31508 14.1967 9.60409 13.1161 10.1841C12.0355 10.7622 11.2199 11.5847 10.6694 12.6478C10.1189 13.7129 9.84367 14.97 9.84367 16.4191C9.84367 16.4251 9.84367 16.4312 9.84367 16.4352C9.84163 17.9834 9.45832 19.1657 8.69578 19.9802C7.93121 20.7987 6.84449 21.207 5.43359 21.207H2.71578V11.6272H5.43359C6.84245 11.6272 7.92917 12.0354 8.69578 12.8539C9.00365 13.1834 9.25036 13.5734 9.43386 14.0241C9.62347 12.9368 9.94969 11.9445 10.4146 11.0471C10.4349 11.0067 10.4574 10.9663 10.4798 10.9259C10.1536 10.6449 9.79066 10.3943 9.39104 10.1801C8.31044 9.60207 7.00556 9.31104 5.47437 9.31104H0V23.5211H5.47641C7.00556 23.5211 8.31248 23.232 9.39308 22.652C10.4737 22.074 11.2892 21.2514 11.8397 20.1883C12.3882 19.1293 12.6634 17.8763 12.6655 16.4332C12.6655 16.4332 12.6655 16.4211 12.6655 16.4171C12.6655 14.8608 13.0488 13.6725 13.8133 12.8539C14.5779 12.0354 15.6646 11.6272 17.0755 11.6272H19.7934V21.207H17.0755C15.6667 21.207 14.58 20.7987 13.8133 19.9802C13.5034 19.6487 13.2567 19.2587 13.0732 18.808C12.8836 19.9094 12.5554 20.9139 12.0864 21.8214C12.0701 21.8537 12.0518 21.886 12.0355 21.9184C12.3617 22.1973 12.7226 22.4418 13.1181 22.654C14.1987 23.232 15.5036 23.5231 17.0348 23.5231H22.5112V9.31508H17.0348H17.0327Z" fill="#000E40"/>
<path d="M27.9427 5.21437V0.252686H28.7827V2.31416H31.1804V0.252686H32.0205V5.21639H31.1804V3.00738H28.7827V5.21639H27.9427V5.21437Z" fill="#000E40"/>
<path d="M32.7952 3.41159C32.7952 2.25757 33.5435 1.52393 34.565 1.52393C35.5864 1.52393 36.3429 2.25757 36.3429 3.41765C36.3429 4.57774 35.5803 5.29723 34.565 5.29723C33.5496 5.29723 32.7952 4.56965 32.7952 3.40957V3.41159ZM35.5395 3.41765C35.5395 2.58498 35.144 2.15247 34.567 2.15247C33.99 2.15247 33.5945 2.58498 33.5945 3.41159C33.5945 4.2382 33.99 4.67677 34.567 4.67677C35.144 4.67677 35.5395 4.24426 35.5395 3.41765Z" fill="#000E40"/>
<path d="M36.7792 4.76778L37.1523 4.2706C37.4561 4.55759 37.8435 4.70311 38.2533 4.70311C38.7548 4.70311 39.0648 4.54143 39.0648 4.21401C39.0648 3.94117 38.8751 3.81587 38.1982 3.68248C37.3093 3.49452 36.9137 3.20753 36.9137 2.57696C36.9137 1.94639 37.4785 1.52197 38.3593 1.52197C38.8955 1.52197 39.3543 1.68972 39.6785 1.93427L39.3685 2.43751C39.1015 2.2354 38.7691 2.10808 38.3879 2.10808C37.923 2.10808 37.662 2.28997 37.662 2.55473C37.662 2.81949 37.8312 2.93267 38.4735 3.07212C39.446 3.26816 39.8273 3.58143 39.8273 4.1837C39.8273 4.86884 39.2625 5.29528 38.2411 5.29528C37.6906 5.29528 37.1339 5.11338 36.7812 4.76374L36.7792 4.76778Z" fill="#000E40"/>
<path d="M40.5389 6.4047V1.61481H41.2729L41.2871 2.21708C41.4564 1.8735 41.8662 1.52588 42.4085 1.52588C43.2832 1.52588 43.9315 2.23931 43.9315 3.37918C43.9315 4.51906 43.2261 5.30121 42.1536 5.30121C41.8213 5.30121 41.4971 5.20419 41.3136 5.08495V6.40672H40.5389V6.4047ZM43.1343 3.38525C43.1343 2.57481 42.7531 2.15443 42.225 2.15443C41.6969 2.15443 41.3157 2.58693 41.3157 3.42769V4.42811C41.4788 4.58979 41.7601 4.68074 42.0782 4.68074C42.749 4.68074 43.1364 4.19771 43.1364 3.38727L43.1343 3.38525Z" fill="#000E40"/>
<path d="M44.6207 0.622527C44.6207 0.363833 44.796 0.202148 45.057 0.202148C45.318 0.202148 45.5015 0.363833 45.5015 0.622527C45.5015 0.895369 45.3261 1.04897 45.057 1.04897C44.7879 1.04897 44.6207 0.895369 44.6207 0.622527ZM44.6696 5.21638V1.61486H45.4587V5.21436H44.6696V5.21638Z" fill="#000E40"/>
<path d="M46.7003 4.31292V2.20901H46.003V1.61482H46.37C46.5963 1.61482 46.7228 1.48951 46.7228 1.26517V0.573975H47.4853V1.61482H48.4578V2.20901H47.4853V4.25835C47.4853 4.56555 47.626 4.67065 47.9012 4.67065C48.0705 4.67065 48.2111 4.61406 48.3172 4.51705L48.4578 4.94349C48.3722 5.12538 48.0276 5.2992 47.6688 5.2992C47.0347 5.2992 46.7024 4.92126 46.7024 4.31292H46.7003Z" fill="#000E40"/>
<path d="M48.9288 4.27869C48.9288 3.99978 49.0002 3.77545 49.1837 3.6077C49.3957 3.40559 49.7627 3.26412 50.3254 3.18732C51.1797 3.08223 51.298 2.93469 51.298 2.62143C51.298 2.30816 51.0431 2.11818 50.6353 2.11818C50.1848 2.11818 49.8871 2.34252 49.8096 2.69823L49.0838 2.55069C49.2734 1.92214 49.8096 1.52197 50.6415 1.52197C51.4733 1.52197 52.0585 1.99086 52.0585 2.82959V4.47877C52.0585 4.61216 52.1156 4.66067 52.2338 4.66067C52.297 4.66067 52.3541 4.64046 52.4092 4.59801V5.05275C52.3663 5.18614 52.1686 5.28315 51.9443 5.28315C51.5488 5.28315 51.3306 5.05275 51.3021 4.69502C51.0615 5.07902 50.6252 5.29528 50.1032 5.29528C49.3916 5.29528 48.9247 4.86884 48.9247 4.27465L48.9288 4.27869ZM51.298 3.89469V3.4541C51.192 3.5794 50.9595 3.63599 50.5232 3.70673C50.2276 3.75524 49.9809 3.81183 49.8381 3.93107C49.7464 4.00787 49.7036 4.11903 49.7036 4.24635C49.7036 4.53334 49.9156 4.70109 50.2826 4.70109C50.8392 4.70109 51.298 4.37166 51.298 3.89671V3.89469Z" fill="#000E40"/>
<path d="M53.0555 4.57971V0.105095L53.8445 0V4.48067C53.8445 4.62013 53.8874 4.66863 54.0076 4.66863C54.0994 4.66863 54.1565 4.64842 54.1911 4.62013L54.2054 5.09507C54.1422 5.20623 53.9648 5.29718 53.7405 5.29718C53.3246 5.29718 53.0555 5.05263 53.0555 4.57768V4.57971Z" fill="#000E40"/>
<path d="M27.1272 21.807L28.5625 19.8143C29.8144 20.9117 31.2294 21.4614 32.9318 21.4614C34.881 21.4614 36.0717 20.8309 36.0717 19.5495C36.0717 18.4925 35.2928 17.9832 32.5832 17.4133C29.3414 16.7221 27.7409 15.5014 27.7409 13.1226C27.7409 10.6003 29.9775 8.87231 33.3416 8.87231C35.456 8.87231 37.3011 9.58372 38.3899 10.4588L37.1992 12.4718C36.2756 11.6998 34.9829 11.1703 33.464 11.1703C31.6779 11.1703 30.6932 11.8817 30.6932 12.9407C30.6932 13.9997 31.3293 14.4666 33.833 14.9941C37.3827 15.7257 39.0444 16.9464 39.0444 19.3474C39.0444 22.094 36.7873 23.8018 32.889 23.8018C30.632 23.8018 28.5197 23.0904 27.1231 21.8091L27.1272 21.807Z" fill="#71A064"/>
<path d="M40.2391 20.831C40.2391 19.9963 40.4655 19.3455 41.0384 18.8382C41.6541 18.2683 42.7001 17.8823 44.3006 17.6377C46.6596 17.2921 47.049 16.9061 47.049 16.0714C47.049 15.2367 46.3925 14.7901 45.3669 14.7901C44.1966 14.7901 43.4585 15.3398 43.2322 16.2755L40.6673 15.8289C41.2015 13.9574 42.8632 12.7993 45.4077 12.7993C47.9522 12.7993 49.7994 14.1615 49.7994 16.6838V21.1988C49.7994 21.5444 49.9646 21.6879 50.2928 21.6879C50.4784 21.6879 50.6415 21.6273 50.7638 21.504V22.949C50.6211 23.3755 49.9646 23.7635 49.1837 23.7635C47.9726 23.7635 47.2753 23.0925 47.1326 22.0557C46.4557 23.1734 45.2038 23.8039 43.6645 23.8039C41.593 23.8039 40.2371 22.5428 40.2371 20.835L40.2391 20.831ZM47.051 19.7133V18.6159C46.7839 18.9413 46.1886 19.0828 45.1222 19.2667C44.323 19.4082 43.7073 19.5719 43.3362 19.8568C43.0895 20.061 42.9672 20.3459 42.9672 20.6713C42.9672 21.3827 43.5013 21.8314 44.4861 21.8314C45.8807 21.8314 47.051 20.9765 47.051 19.7154V19.7133Z" fill="#71A064"/>
<path d="M61.9878 16.7625V23.5552H59.1762V17.4537C59.1762 15.9278 58.6624 15.0547 57.3086 15.0547C55.9548 15.0547 55.0719 16.0107 55.0719 17.6982V23.5552H52.2603V13.0599H54.9476L55.0291 14.7071C55.5429 13.7107 56.6092 12.7952 58.3525 12.7952C60.9582 12.7952 61.9837 14.4221 61.9837 16.7605L61.9878 16.7625Z" fill="#71A064"/>
<path d="M64.9625 20.7097V15.0972H62.9929V13.064H63.9981C64.6546 13.064 65.0237 12.6982 65.0237 12.0474V10.0547H67.7517V13.064H70.4593V15.0972H67.7517V20.548C67.7517 21.3402 68.1411 21.6454 68.8792 21.6454C69.3501 21.6454 69.762 21.504 70.0902 21.1988L70.4389 22.6842C70.1922 23.2542 69.1666 23.8019 68.0188 23.8019C65.9677 23.8019 64.9625 22.6216 64.9625 20.7097Z" fill="#71A064"/>
<path d="M71.8151 20.831C71.8151 19.9963 72.0414 19.3455 72.6144 18.8382C73.2301 18.2683 74.276 17.8823 75.8766 17.6377C78.2355 17.2921 78.625 16.9061 78.625 16.0714C78.625 15.2367 77.9684 14.7901 76.9429 14.7901C75.7726 14.7901 75.0345 15.3398 74.8082 16.2755L72.2433 15.8289C72.7775 13.9574 74.4392 12.7993 76.9837 12.7993C79.5282 12.7993 81.3754 14.1615 81.3754 16.6838V21.1988C81.3754 21.5444 81.5405 21.6879 81.8688 21.6879C82.0543 21.6879 82.2175 21.6273 82.3398 21.504V22.949C82.1971 23.3755 81.5405 23.7635 80.7597 23.7635C79.5486 23.7635 78.8513 23.0925 78.7086 22.0557C78.0317 23.1734 76.7798 23.8039 75.2404 23.8039C73.1689 23.8039 71.8131 22.5428 71.8131 20.835L71.8151 20.831ZM78.627 19.7133V18.6159C78.3599 18.9413 77.7646 19.0828 76.6982 19.2667C75.899 19.4082 75.2833 19.5719 74.9122 19.8568C74.6655 20.061 74.5431 20.3459 74.5431 20.6713C74.5431 21.3827 75.0773 21.8314 76.0621 21.8314C77.4567 21.8314 78.627 20.9765 78.627 19.7154V19.7133Z" fill="#71A064"/>
<path d="M86.4746 23.7554V9.31494H92.4872C95.462 9.31494 97.7394 10.8813 97.7394 13.9512C97.7394 17.0212 95.462 18.5875 92.4872 18.5875H89.431V23.7533H86.4767L86.4746 23.7554ZM89.4289 16.1683H92.1773C93.5923 16.1683 94.7015 15.5378 94.7015 13.9512C94.7015 12.3647 93.5944 11.7341 92.1773 11.7341H89.4289V16.1683Z" fill="#71A064"/>
<path d="M98.7241 21.029C98.7241 20.1943 98.9505 19.5435 99.5234 19.0362C100.139 18.4663 101.185 18.0803 102.786 17.8357C105.145 17.4901 105.534 17.1041 105.534 16.2694C105.534 15.4347 104.877 14.9881 103.852 14.9881C102.682 14.9881 101.944 15.5378 101.717 16.4735L99.1523 16.0269C99.6865 14.1554 101.348 12.9973 103.893 12.9973C106.437 12.9973 108.284 14.3595 108.284 16.8818V21.3968C108.284 21.7424 108.45 21.8859 108.778 21.8859C108.963 21.8859 109.126 21.8253 109.249 21.702V23.147C109.106 23.5735 108.45 23.9615 107.669 23.9615C106.458 23.9615 105.76 23.2905 105.618 22.2537C104.941 23.3714 103.689 24.0019 102.149 24.0019C100.078 24.0019 98.7221 22.7408 98.7221 21.033L98.7241 21.029ZM105.536 19.9113V18.8139C105.269 19.1393 104.674 19.2808 103.607 19.4647C102.808 19.6062 102.192 19.7699 101.821 20.0548C101.574 20.259 101.452 20.5439 101.452 20.8693C101.452 21.5807 101.986 22.0294 102.971 22.0294C104.366 22.0294 105.536 21.1745 105.536 19.9134V19.9113Z" fill="#71A064"/>
<path d="M111.076 19.9921V13.26H113.887V19.4626C113.887 20.9481 114.442 21.7606 115.714 21.7606C116.986 21.7606 117.849 20.7844 117.849 19.0766V13.26H120.66V23.7553H117.953L117.892 22.2092C117.337 23.1854 116.23 23.9999 114.691 23.9999C112.228 23.9999 111.08 22.4538 111.08 19.9942L111.076 19.9921Z" fill="#71A064"/>
<path d="M123.386 21.5989V8.88648L126.198 8.5813V21.3544C126.198 21.7 126.32 21.8434 126.649 21.8434C126.895 21.8434 127.058 21.7828 127.142 21.702L127.183 23.3896C126.977 23.7149 126.341 23.9999 125.623 23.9999C124.208 23.9999 123.386 23.1652 123.386 21.6009V21.5989Z" fill="#71A064"/>
<path d="M128.473 21.029C128.473 20.1943 128.7 19.5435 129.273 19.0362C129.888 18.4663 130.934 18.0803 132.535 17.8357C134.894 17.4901 135.283 17.1041 135.283 16.2694C135.283 15.4347 134.627 14.9881 133.601 14.9881C132.431 14.9881 131.693 15.5378 131.466 16.4735L128.901 16.0269C129.436 14.1554 131.097 12.9973 133.642 12.9973C136.186 12.9973 138.034 14.3595 138.034 16.8818V21.3968C138.034 21.7424 138.199 21.8859 138.527 21.8859C138.713 21.8859 138.876 21.8253 138.998 21.702V23.147C138.855 23.5735 138.199 23.9615 137.418 23.9615C136.207 23.9615 135.509 23.2905 135.367 22.2537C134.69 23.3714 133.438 24.0019 131.899 24.0019C129.827 24.0019 128.471 22.7408 128.471 21.033L128.473 21.029ZM135.285 19.9113V18.8139C135.018 19.1393 134.423 19.2808 133.356 19.4647C132.557 19.6062 131.941 19.7699 131.57 20.0548C131.324 20.259 131.201 20.5439 131.201 20.8693C131.201 21.5807 131.736 22.0294 132.72 22.0294C134.115 22.0294 135.285 21.1745 135.285 19.9134V19.9113Z" fill="#71A064"/>
</svg>
