<svg width="160" height="32" viewBox="0 0 160 32" fill="none" xmlns="http://www.w3.org/2000/svg">
<path d="M23.6391 18.5107H21.4985V7.34433H24.122L28.6716 15.2401V7.34433H30.7989V18.5107H28.2992L23.6391 10.3631V18.5107Z" fill="#00AF66"/>
<path d="M34.9365 17.9765C34.1344 17.4946 33.4851 16.7903 33.0653 15.9468C32.6199 15.0774 32.3971 14.0709 32.3971 12.9271C32.3971 11.7833 32.6199 10.7742 33.0653 9.89975C33.4824 9.05429 34.1324 8.34932 34.9365 7.87003C35.7379 7.39196 36.6616 7.15292 37.7074 7.15292C38.742 7.15292 39.6606 7.39132 40.4633 7.86811C41.2674 8.3474 41.9173 9.05238 42.3345 9.89783C42.7793 10.7729 43.0017 11.782 43.0017 12.9252C43.0017 14.0683 42.7793 15.0749 42.3345 15.9449C41.9146 16.7884 41.2654 17.4927 40.4633 17.9746C39.6606 18.4571 38.742 18.6981 37.7074 18.6974C36.6622 18.6987 35.7386 18.4584 34.9365 17.9765ZM39.8735 15.7821C40.4173 15.096 40.6888 14.1443 40.6882 12.9271C40.6876 11.7099 40.416 10.7557 39.8735 10.0644C39.3304 9.37189 38.6084 9.02595 37.7074 9.02659C36.7863 9.02659 36.0567 9.36998 35.5187 10.0568C34.9806 10.7435 34.7113 11.701 34.7107 12.929C34.7107 14.1456 34.9825 15.0972 35.5262 15.784C36.07 16.4708 36.797 16.8142 37.7074 16.8142C38.6084 16.8129 39.3304 16.4689 39.8735 15.7821Z" fill="#00AF66"/>
<path d="M49.6787 18.5107H47.2092L43.4365 7.34433H45.8275L48.4945 15.9314L51.153 7.34433H53.4514L49.6787 18.5107Z" fill="#00AF66"/>
<path d="M53.6572 12.9375C53.6572 9.43049 55.8101 7.16333 58.9335 7.16333C62.3358 7.16333 64.19 9.70814 64.0218 13.4507H55.9792C56.1475 15.76 57.3723 16.7863 59.2293 16.7863C60.7074 16.7863 61.8888 16.0807 62.4586 15.3109L63.7694 16.658C62.882 17.8337 61.1724 18.7107 59.2331 18.7107C55.8139 18.7107 53.6572 16.4866 53.6572 12.9375ZM61.5958 11.825C61.4484 10.072 60.456 9.04848 58.9354 9.04848C57.395 9.04848 56.3393 9.94654 56.0445 11.825H61.5958Z" fill="#00AF66"/>
<path d="M21.3408 31.8057V20.6375H25.3309C26.3141 20.621 27.2874 20.8395 28.1717 21.2751C29.0023 21.6914 29.6897 22.3517 30.1441 23.1699C30.6204 24.0092 30.8586 25.0263 30.8586 26.2211C30.8586 27.416 30.6179 28.4347 30.1365 29.2772C29.679 30.0929 28.9925 30.7524 28.1642 31.1719C27.3319 31.597 26.3868 31.8096 25.329 31.8096L21.3408 31.8057ZM25.191 29.934C26.2054 29.934 27.0178 29.635 27.6283 29.0369C28.2388 28.4388 28.5444 27.5002 28.545 26.2211C28.545 24.9446 28.2423 24.0063 27.6368 23.4063C27.0314 22.8064 26.2123 22.5073 25.1797 22.5092H23.5759V29.934H25.191Z" fill="#00AF66"/>
<path d="M32.076 26.221C32.076 22.714 34.2298 20.4478 37.3532 20.4478C40.7555 20.4478 42.6097 22.9926 42.4405 26.7342H34.399C34.5672 29.0445 35.792 30.0708 37.649 30.0708C39.1271 30.0708 40.3085 29.3652 40.8783 28.5954L42.1872 29.9473C41.3008 31.123 39.5912 32 37.6509 32C34.2298 31.9952 32.076 29.7711 32.076 26.221ZM40.0145 25.1095C39.8662 23.3555 38.8739 22.333 37.3542 22.333C35.8137 22.333 34.7581 23.231 34.4632 25.1095H40.0145Z" fill="#00AF66"/>
<path d="M46.8778 31.1287L47.7009 29.5251C48.1768 29.8846 48.7527 30.0826 49.3463 30.0909C50.6505 30.0909 51.3029 29.3987 51.3035 28.0143V20.6422H53.5253V28.0037C53.5253 29.2618 53.1889 30.2422 52.516 30.9449C51.8431 31.6477 50.86 31.9987 49.5665 31.9981C48.4784 31.9955 47.5822 31.7057 46.8778 31.1287Z" fill="#00AF66"/>
<path d="M56.5742 30.8222C55.793 30.0409 55.4023 28.9268 55.4023 27.4799V20.6372H57.6374V27.4483C57.6374 28.287 57.8343 28.9345 58.2281 29.3909C58.6219 29.8472 59.1962 30.0751 59.9509 30.0744C60.6969 30.0744 61.269 29.8491 61.6672 29.3985C62.0654 28.9479 62.2645 28.2924 62.2645 27.432V20.6344H64.4882V27.4607C64.4882 28.8981 64.0976 30.0122 63.3163 30.803C62.5351 31.5939 61.4095 31.9899 59.9396 31.9912C58.4779 31.9931 57.3561 31.6034 56.5742 30.8222Z" fill="#00AF66"/>
<path d="M73.0083 31.8058H66.4259V20.6376H68.6771V29.9025H73.0083V31.8058Z" fill="#00AF66"/>
<path d="M76.6564 31.8058H74.4053V20.6376H76.6564V25.1212H81.4224V20.6376H83.6726V31.8058H81.4205V27.0082H76.6545L76.6564 31.8058Z" fill="#00AF66"/>
<path d="M87.8124 31.2705C87.0106 30.7887 86.3613 30.0848 85.9411 29.2417C85.4957 28.3711 85.2733 27.3642 85.2739 26.2211C85.2746 25.0779 85.497 24.0688 85.9411 23.1937C86.3584 22.3486 87.0083 21.6439 87.8124 21.165C88.6138 20.6869 89.5374 20.4482 90.5833 20.4488C91.6185 20.4488 92.5371 20.6875 93.3391 21.165C94.1432 21.6439 94.7931 22.3486 95.2104 23.1937C95.6558 24.0694 95.8782 25.0785 95.8776 26.2211C95.8769 27.3636 95.6545 28.3705 95.2104 29.2417C94.7902 30.0848 94.141 30.7887 93.3391 31.2705C92.5371 31.753 91.6185 31.9943 90.5833 31.9943C89.5381 31.9943 88.6144 31.753 87.8124 31.2705ZM92.7456 29.0761C93.2894 28.3899 93.5612 27.4383 93.5612 26.2211C93.5612 25.0039 93.2894 24.0496 92.7456 23.3584C92.2025 22.6671 91.4805 22.3212 90.5795 22.3206C89.6584 22.3206 88.9288 22.6639 88.3908 23.3507C87.8527 24.0375 87.5834 24.9949 87.5827 26.223C87.5827 27.4395 87.8546 28.3912 88.3983 29.078C88.942 29.7648 89.6691 30.1082 90.5795 30.1082C91.483 30.1069 92.205 29.7629 92.7456 29.0761Z" fill="#00AF66"/>
<path d="M21.5015 4.16356V0.19986H22.1573V1.84661H24.0305V0.19986H24.6863V4.16356H24.0305V2.4H22.1573V4.16356H21.5015Z" fill="#000E40"/>
<path d="M25.2933 2.72377C25.2933 1.80273 25.8773 1.2168 26.6759 1.2168C27.4745 1.2168 28.0642 1.80273 28.0642 2.72951C28.0642 3.65629 27.4698 4.23074 26.6759 4.23074C25.8821 4.23074 25.2933 3.65054 25.2933 2.72377ZM27.4367 2.72951C27.4367 2.06507 27.1277 1.71848 26.6806 1.71848C26.2336 1.71848 25.9246 2.06507 25.9246 2.72377C25.9246 3.38247 26.2336 3.73384 26.6806 3.73384C27.1277 3.73384 27.4367 3.38821 27.4367 2.72951Z" fill="#000E40"/>
<path d="M28.4062 3.80657L28.6983 3.4102C28.9293 3.6343 29.2375 3.7583 29.5573 3.75582C29.9486 3.75582 30.1915 3.62753 30.1915 3.3652C30.1915 3.14787 30.0431 3.04734 29.5139 2.94107C28.8192 2.79075 28.5112 2.5581 28.5112 2.05928C28.5112 1.56047 28.9516 1.21676 29.6452 1.21676C30.0149 1.20976 30.3766 1.32542 30.6754 1.54611L30.4334 1.94727C30.2138 1.77606 29.9441 1.68377 29.667 1.68494C29.3031 1.68494 29.0999 1.83046 29.0999 2.04205C29.0999 2.25364 29.2322 2.34364 29.7331 2.45566C30.4939 2.61171 30.7916 2.86256 30.7916 3.34318C30.7916 3.88986 30.3502 4.2307 29.5517 4.2307C29.1217 4.2307 28.6813 4.089 28.4062 3.80657Z" fill="#000E40"/>
<path d="M31.3438 5.11252V1.2886H31.9165L31.9278 1.76731C32.0103 1.60248 32.1361 1.46388 32.2913 1.36676C32.4466 1.26964 32.6252 1.21775 32.8077 1.2168C33.4909 1.2168 33.9975 1.7855 33.9975 2.696C33.9975 3.62182 33.4465 4.22787 32.6092 4.22787C32.3792 4.23046 32.1528 4.17062 31.9533 4.05458V5.10773L31.3438 5.11252ZM33.3747 2.70079C33.3747 2.05358 33.077 1.71848 32.664 1.71848C32.251 1.71848 31.9533 2.06507 31.9533 2.7343V3.53278C32.1192 3.67424 32.3322 3.74616 32.5487 3.73384C33.0675 3.73384 33.3747 3.34896 33.3747 2.70079Z" fill="#000E40"/>
<path d="M34.533 0.496093C34.5313 0.426514 34.5502 0.358007 34.5871 0.299354C34.6241 0.240701 34.6776 0.194571 34.7406 0.16688C34.8036 0.139188 34.8734 0.131197 34.9409 0.143926C35.0085 0.156655 35.0707 0.189527 35.1197 0.238329C35.1687 0.287131 35.2022 0.349637 35.2159 0.417842C35.2295 0.486046 35.2228 0.556838 35.1966 0.621146C35.1703 0.685454 35.1256 0.74035 35.0684 0.778795C35.0111 0.81724 34.9438 0.837484 34.8751 0.836933C34.8297 0.840917 34.7839 0.834882 34.741 0.819244C34.6981 0.803606 34.6591 0.778736 34.6266 0.746345C34.594 0.713954 34.5688 0.674813 34.5527 0.631612C34.5365 0.588411 34.5298 0.542177 34.533 0.496093ZM34.5717 4.16395V1.29171H35.1889V4.16395H34.5717Z" fill="#000E40"/>
<path d="M36.1583 3.44377V1.76351H35.613V1.2848H35.8965C35.9336 1.28904 35.9713 1.28476 36.0066 1.27228C36.0419 1.25979 36.074 1.23942 36.1005 1.21267C36.127 1.18592 36.1472 1.15347 36.1597 1.11773C36.1721 1.08199 36.1765 1.04387 36.1724 1.00619V0.453766H36.7678V1.2848H37.5239V1.76351H36.7678V3.39877C36.7678 3.64483 36.8774 3.72813 37.0929 3.72813C37.2128 3.73129 37.3293 3.68738 37.418 3.60558L37.5277 3.94642C37.4615 4.09099 37.1922 4.23364 36.9105 4.23364C36.4172 4.23077 36.1583 3.92918 36.1583 3.44377Z" fill="#000E40"/>
<path d="M37.9 3.41891C37.8927 3.32031 37.9067 3.22128 37.941 3.1287C37.9752 3.03612 38.029 2.95219 38.0984 2.88276C38.2638 2.72095 38.5502 2.60894 38.9906 2.54766C39.6578 2.46437 39.7514 2.3466 39.7514 2.09576C39.7514 1.84492 39.5529 1.69365 39.2335 1.69365C38.881 1.69365 38.6494 1.87268 38.5889 2.15704L38.0219 2.04023C38.1712 1.53759 38.5889 1.21973 39.2401 1.21973C39.9177 1.21973 40.3467 1.59312 40.3467 2.26331V3.58071C40.3467 3.68699 40.3912 3.72528 40.4847 3.72528C40.5349 3.72497 40.5836 3.70742 40.6227 3.6755V4.03836C40.5896 4.14463 40.4337 4.22218 40.2588 4.22218C40.195 4.22777 40.1306 4.2198 40.0699 4.19878C40.0092 4.17776 39.9535 4.14414 39.9064 4.10009C39.8593 4.05603 39.8217 4.00249 39.7962 3.9429C39.7706 3.88331 39.7576 3.81898 39.758 3.754C39.569 4.06038 39.2287 4.23271 38.8205 4.23271C38.2638 4.2308 37.9 3.88996 37.9 3.41891ZM39.7514 3.11158V2.76021C39.6682 2.86074 39.4867 2.90478 39.1446 2.96126C38.914 2.99956 38.7212 3.04456 38.6107 3.13934C38.5758 3.17077 38.5483 3.20968 38.5301 3.25324C38.512 3.2968 38.5037 3.34391 38.5058 3.39114C38.5058 3.61997 38.6712 3.754 38.9575 3.754C39.3932 3.75113 39.7514 3.4888 39.7514 3.10871V3.11158Z" fill="#000E40"/>
<path d="M41.124 3.65541V0.0832946L41.7412 0V3.57786C41.7412 3.68892 41.7742 3.72817 41.8678 3.72817C41.9184 3.73247 41.969 3.71857 42.0105 3.68892L42.0218 4.07189C41.9793 4.12747 41.9238 4.1714 41.8602 4.19966C41.7967 4.22793 41.7272 4.23962 41.658 4.23369C41.3329 4.23082 41.124 4.0355 41.124 3.65541Z" fill="#000E40"/>
<path d="M13.1688 7.34439C11.9857 7.34439 10.9765 7.57312 10.1411 8.03059C9.3273 8.46607 8.66656 9.14621 8.24972 9.97753C7.82475 10.8187 7.61227 11.8132 7.61227 12.961V12.9745C7.61227 14.198 7.31682 15.1319 6.72593 15.776C6.13503 16.4202 5.29398 16.742 4.20276 16.7413H2.10328V9.17296H4.20276C5.29208 9.17296 6.13282 9.49601 6.72498 10.1421C6.96881 10.4128 7.16196 10.7262 7.29498 11.067C7.42946 10.2485 7.68571 9.45546 8.05497 8.71486L8.10437 8.61861C7.84608 8.39146 7.56381 8.19393 7.26268 8.02962C6.42605 7.5728 5.41653 7.34439 4.23411 7.34439H0V18.5709H4.23411C5.41716 18.5709 6.42637 18.3421 7.26172 17.8847C8.07576 17.4494 8.73658 16.7692 9.15316 15.9377C9.57685 15.0998 9.78933 14.1107 9.7906 12.9706C9.7906 12.9706 9.7906 12.962 9.7906 12.9571C9.7906 11.7272 10.0864 10.7888 10.6779 10.1421C11.2694 9.49537 12.1102 9.17232 13.2001 9.17296H15.3015V16.7413H13.2001C12.1108 16.7413 11.2701 16.4183 10.6779 15.7722C10.4341 15.5008 10.2409 15.1867 10.1079 14.8454C9.97652 15.6738 9.7202 16.4769 9.34791 17.2264C9.33556 17.2524 9.32225 17.2774 9.30895 17.3034C9.56638 17.5261 9.84702 17.7197 10.1459 17.8808C10.9819 18.3383 11.9911 18.567 13.1735 18.567H17.4076V7.34439H13.1688Z" fill="#000E40"/>
</svg>
