<?xml version="1.0" encoding="UTF-8"?>
<svg xmlns="http://www.w3.org/2000/svg" version="1.1" viewBox="0 0 500 200">
  <defs>
    <style>
      .cls-1 {
        fill-rule: evenodd;
      }

      .cls-1, .cls-2 {
        fill: #010101;
      }
    </style>
  </defs>
  <!-- Generator: Adobe Illustrator 29.0.0, SVG Export Plug-In . SVG Version: 1.2.0 Build 9)  -->
  <g>
    <g id="Layer_1">
      <path id="M" class="cls-2" d="M139.2,179.3c.8,1.1,1.6,2.2.5,3.3-1.3,1.2-3.2.3-4.3-.8-4-3.7-5.4-9.5-5.5-16h0V57.5l-30.5,50.7-2.2,3.6-21,35h-4L15.5,59.1v119.1h-5.4V46.5h6.5l58.5,91.7,16.9-28.2,2.2-3.6,35.9-60h5.4v90.6s-1.4,31.6,3.6,42.1Z"/>
      <path id="P" class="cls-2" d="M159.7,74.7c-1.5-1-4.1-.7-5.7-.2l-10.7,1.4c1.5-3.1,5.7-5.5,8.9-6.5,4.3-1.4,9.1-1.2,12.9,1.4,6.3,4.6,3.8,11.4.9,17.1-2.7,5.4-5.4,10.8-8,16.3l-1.9,4.1-1.5,3.3c-8,17.6-26.2,57.7-15.3,67.7,1,.9,1.6,2.2.5,3.3-1.3,1.2-3.2.3-4.3-.8-4-3.7-5.5-16-5.5-16-.6-9.6,5.7-28.7,5.7-28.7.2-.6.4-1.2.6-1.8,3.7-10.9,8.2-21.5,13.1-32l2-4.3c2.2-4.7,4.5-9.3,6.9-13.9,1.2-2.4,4.3-8.3,1.5-10.5"/>
      <path id="P2" class="cls-2" d="M159.7,74.7,153.9,74.4c-6.9,2.3-9.7,10.1-7.8,16.5.9,3.2,2.8,5.7,5.1,8.1l6.6,5c1.2.8,2.9,1.6,4.6,2.4,7.6,3.3,15.6,4.8,23.8,4.5,59-1.8,49.3-96-42.9-86.7-28.2,2.8-63.2,16.4-68.7,46.7-1.5,8.5,1,17.6,6.1,24.7,3.6,5,8.2,8.6,13.4,10.9l5.1,1.8c5.3,1.4,11.1,1.5,16.8.4,3.8-.8,4.4,3,1.3,3.7-6.9,1.5-13.9,1.4-20.3-.4l-5.1-1.8c-5.9-2.6-11.1-6.7-15.3-12.4-6-8.1-9-18.7-7.2-28.6,5.8-32.3,42.3-46.7,72.4-50,40.6-4.5,67.1,9.5,80.1,28.1,9.1,13.1,12.5,30.4,5.9,45.3-6,13.5-19.7,23.4-40.9,23.5-9.4.2-19-1.8-27.4-5.8-1.4-.7-2.7-1.4-3.6-1.9l-6.7-4.8c-3.8-3.4-6.8-7.2-8.2-12.1-1.5-5.1-.9-11,2.2-15.4,1.5-3.1,5.7-5.5,8.9-6.5,4.3-1.4,9.1-1.2,12.9,1.4l-11.1,3.7Z"/>
      <path id="coluna" class="cls-1" d="M146,182c-1.1,0-1.9-.8-1.9-1.9s.9-1.9,1.9-1.9,1.9.8,1.9,1.9-.9,1.9-1.9,1.9Z"/>
      <path id="coluna-2" data-name="coluna" class="cls-1" d="M144.4,173c-1.5,0-2.7-1.2-2.7-2.6s1.2-2.6,2.7-2.6,2.7,1.2,2.7,2.6-1.2,2.6-2.7,2.6Z"/>
      <path id="coluna-3" data-name="coluna" class="cls-1" d="M146.8,162.7c-1.9,0-3.4-1.5-3.4-3.3s1.5-3.3,3.4-3.3,3.4,1.5,3.4,3.3-1.5,3.3-3.4,3.3Z"/>
      <path id="coluna-4" data-name="coluna" class="cls-1" d="M149.3,144c2.2,0,4,1.8,4,4s-1.8,4-4,4-4-1.8-4-4,1.8-4,4-4Z"/>
      <path id="coluna-5" data-name="coluna" class="cls-1" d="M152.6,133.1c1.9,0,3.4,1.5,3.4,3.3s-1.5,3.3-3.4,3.3-3.4-1.5-3.4-3.3,1.5-3.3,3.4-3.3Z"/>
      <path id="coluna-6" data-name="coluna" class="cls-1" d="M156.2,123.6c1.5,0,2.7,1.2,2.7,2.6s-1.2,2.6-2.7,2.6-2.7-1.2-2.7-2.6,1.2-2.6,2.7-2.6"/>
      <path id="coluna-7" data-name="coluna" class="cls-1" d="M159.9,116c1.1,0,1.9.8,1.9,1.9s-.9,1.9-1.9,1.9-1.9-.8-1.9-1.9.9-1.9,1.9-1.9Z"/>
      <path id="Panício" class="cls-2" d="M431.3,159.3c-.5-.4-1-.8-1.5-1.3-.4-.5-.8-1-1.2-1.6-.3-.6-.6-1.2-.9-1.9-.2-.7-.4-1.4-.5-2.1-.1-.7-.2-1.5-.2-2.3s0-1.6.2-2.3c.1-.8.3-1.5.5-2.1.2-.7.5-1.3.9-1.9.3-.6.7-1.1,1.2-1.6.4-.5.9-.9,1.5-1.3.5-.4,1.1-.7,1.7-.9.6-.2,1.3-.4,1.9-.6.7-.1,1.4-.2,2.1-.2s1.4,0,2.1.2c.7.1,1.3.3,1.9.6.6.3,1.2.6,1.7.9.5.4,1,.8,1.5,1.3.4.5.8,1,1.2,1.6.3.6.6,1.2.9,1.9.2.7.4,1.4.5,2.1.1.7.2,1.5.2,2.3s0,1.6-.2,2.3c-.1.8-.3,1.5-.5,2.1-.2.7-.5,1.3-.9,1.9-.3.6-.7,1.1-1.2,1.6-.4.5-.9.9-1.5,1.3-.5.4-1.1.7-1.7.9-.6.2-1.3.4-1.9.6-.7.1-1.4.2-2.1.2s-1.4,0-2.1-.2c-.7-.1-1.3-.3-1.9-.6-.6-.3-1.2-.6-1.7-.9M445.1,161.4c.8-.5,1.5-1,2.1-1.7.7-.6,1.2-1.3,1.8-2,.5-.7.9-1.5,1.3-2.3.3-.8.6-1.7.8-2.6.2-.9.3-1.8.3-2.7s0-1.8-.3-2.7c-.2-.9-.4-1.8-.8-2.6-.4-.8-.8-1.6-1.3-2.3-.5-.7-1.1-1.4-1.8-2-.7-.6-1.4-1.2-2.1-1.7-.8-.5-1.6-.9-2.5-1.2-.9-.3-1.8-.6-2.7-.7-.9-.2-1.9-.2-2.9-.2s-1.9,0-2.8.3c-.9.2-1.8.4-2.7.7-.9.3-1.7.7-2.5,1.2-.8.5-1.5,1-2.1,1.7-.7.6-1.2,1.3-1.8,2-.5.7-.9,1.5-1.3,2.3-.3.8-.6,1.7-.8,2.6-.2.9-.3,1.8-.3,2.7s0,1.8.3,2.7c.2.9.4,1.7.8,2.6.4.8.8,1.6,1.3,2.3.5.7,1.1,1.4,1.8,2,.7.6,1.4,1.2,2.2,1.7.8.5,1.6.9,2.5,1.2.9.3,1.8.6,2.7.7.9.2,1.9.3,2.8.3s1.9,0,2.9-.2c.9-.2,1.8-.4,2.7-.7.9-.3,1.7-.7,2.5-1.2ZM408.8,163.1h4.1v-26.7l-4.1,1.5v25.1ZM393.1,162.8c.5-.2,1-.4,1.4-.6.5-.2.9-.5,1.3-.8.4-.3.8-.6,1.1-.9.3-.3.7-.7.9-1,.3-.4.5-.7.7-1.1l.6-1.2h-2.9l-.2.4c-.2.2-.3.5-.5.7-.2.2-.4.5-.7.7-.3.2-.5.4-.9.6-.3.2-.6.4-1,.5-.4.2-.7.3-1.1.4-.4.1-.8.2-1.2.3-.4,0-.8.1-1.3.2-.4,0-.9,0-1.3,0-.7,0-1.4,0-2.1-.2-.7-.1-1.3-.3-1.9-.6-.6-.3-1.2-.6-1.7-.9-.5-.4-1-.8-1.5-1.3-.4-.5-.8-1-1.2-1.6-.3-.6-.6-1.2-.9-1.9-.2-.7-.4-1.4-.5-2.2-.1-.7-.2-1.5-.2-2.4s0-1.6.2-2.4c.1-.8.3-1.5.5-2.2.2-.7.5-1.3.9-1.9.3-.6.8-1.1,1.2-1.6.4-.5.9-.9,1.5-1.3.5-.4,1.1-.7,1.8-.9.6-.2,1.3-.4,2-.6.7-.1,1.4-.2,2.2-.2s1,0,1.5,0c.5,0,1,.1,1.4.3.5.1.9.2,1.3.4.4.2.8.3,1.1.6.3.2.6.4.8.6.2.2.5.5.6.7.2.2.3.5.4.7,0,.3.1.5.1.8v.8h2.7v-.8c0-.5,0-1-.2-1.4-.1-.5-.3-.9-.6-1.3-.3-.4-.6-.8-1-1.2-.4-.4-.8-.7-1.3-1-.5-.3-1-.5-1.5-.8-.5-.2-1.1-.4-1.7-.6-.6-.1-1.2-.3-1.9-.3-.6,0-1.3-.1-2-.1-1,0-2,0-2.9.2-1,.2-1.9.4-2.7.7-.9.3-1.7.7-2.5,1.2-.8.5-1.5,1-2.2,1.6-.7.6-1.3,1.3-1.8,2-.5.7-1,1.5-1.3,2.3-.4.8-.6,1.7-.8,2.6-.2.9-.3,1.8-.3,2.7s0,1.8.3,2.7c.2.9.5,1.8.8,2.6.4.8.8,1.6,1.3,2.4.5.7,1.1,1.4,1.8,2,.7.6,1.4,1.2,2.2,1.6.8.5,1.6.9,2.5,1.2.9.3,1.8.6,2.7.7.9.2,1.9.2,2.9.2s1.1,0,1.7,0c.6,0,1.1-.1,1.6-.3.5-.1,1-.3,1.5-.4ZM359.8,163.1h4.1v-26.7l-4.1,1.5v25.1ZM332.9,137.5c-.5.2-1,.4-1.5.7-.4.2-.7.4-1.1.6-.3.2-.7.5-1,.7l-.5.4-.6.6v-4l-4.1,1.5v25.1h4.1c0-1.6,0-18.5,0-18.5.2-.3.4-.7.6-1,.2-.3.5-.7.8-.9.3-.3.7-.6,1-.9.4-.3.8-.5,1.2-.8.4-.2.9-.5,1.3-.7.4-.2.9-.4,1.4-.5.5-.1.9-.2,1.4-.3.5,0,.9,0,1.4,0s1,0,1.4.1c.5,0,.9.2,1.3.3.4.1.8.3,1.2.5.4.2.7.4,1,.7.3.3.6.6.8.9.2.3.4.6.6,1,.2.3.3.7.4,1.1,0,.4.1.8.1,1.2v17.9h4.1v-17.3c0-.7,0-1.3-.2-1.9-.1-.6-.3-1.2-.6-1.8-.3-.6-.6-1.1-.9-1.6-.4-.5-.8-1-1.3-1.4-.5-.4-1-.8-1.6-1.1-.6-.3-1.2-.6-1.8-.8-.6-.2-1.3-.4-2-.5-.7-.1-1.4-.2-2.1-.2s-1.1,0-1.7.1c-.6,0-1.1.2-1.7.3-.6.1-1.1.3-1.6.5ZM268.8,127.2h-15.5v35.8h4.1v-33.3h11.1c.7,0,1.4,0,2.1.2.7.1,1.3.3,1.9.5.6.2,1.2.5,1.7.8.5.3,1,.7,1.4,1.1.4.4.8.8,1.1,1.3.3.5.6,1,.8,1.5.2.5.4,1.1.5,1.7.1.6.2,1.2.2,1.9s0,1.3-.2,1.9c-.1.6-.3,1.2-.5,1.7-.2.5-.5,1.1-.8,1.5-.3.5-.7.9-1.1,1.3-.4.4-.9.7-1.4,1.1-.5.3-1.1.6-1.7.8-.6.2-1.2.4-1.9.5-.7.1-1.4.2-2.1.2h-7.3v2.6h7.5c.9,0,1.9,0,2.7-.2.9-.1,1.8-.3,2.6-.6.8-.3,1.6-.6,2.4-1,.7-.4,1.4-.9,2.1-1.4.6-.5,1.2-1.1,1.7-1.7.5-.6.9-1.3,1.3-2,.3-.7.6-1.4.8-2.2.2-.7.3-1.5.3-2.3s0-1.6-.3-2.3c-.2-.8-.4-1.5-.8-2.2-.3-.7-.8-1.4-1.3-2-.5-.6-1.1-1.2-1.7-1.7-.6-.5-1.3-1-2.1-1.4-.7-.4-1.5-.7-2.4-1-.8-.3-1.7-.5-2.6-.6-.9-.1-1.8-.2-2.7-.2ZM295.4,137.6c-.6.2-1.1.5-1.6.8-.5.3-1,.7-1.4,1.1-.4.4-.7.8-1,1.2-.3.4-.5.9-.6,1.4-.1.5-.2.9-.2,1.4v.8h2.7v-.8c0-.3,0-.5.1-.8,0-.3.2-.5.4-.8.2-.3.4-.5.7-.8.3-.2.6-.5.9-.7.4-.2.8-.4,1.2-.6.4-.2.9-.3,1.4-.4.5-.1,1-.2,1.5-.3.5,0,1,0,1.6,0s1.1,0,1.6.1c.5,0,1,.2,1.5.3.5.1.9.3,1.3.5.4.2.8.5,1.1.7.3.3.6.6.9.9.3.3.5.7.7,1,.2.4.3.7.4,1.1,0,.4.1.8.1,1.2v3h-.1c-.3-.1-.6-.2-1-.3-.3,0-.7-.2-1.1-.2-.5,0-1-.1-1.6-.2-.5,0-1.1,0-1.7,0s-1.4,0-2,0c-.7,0-1.4.1-2,.3-.7.1-1.3.3-2,.4-.6.2-1.3.4-1.8.6-.7.2-1.3.5-1.9.9-.6.3-1.1.6-1.6,1-.5.4-.9.8-1.3,1.2-.4.4-.7.8-.9,1.3-.1.2-.2.5-.3.7,0,.2-.2.5-.2.7,0,.2-.1.5-.1.8,0,.3,0,.5,0,.8,0,.5,0,1.1.2,1.5.1.5.3,1,.6,1.5.3.5.6.9,1,1.3.4.4.8.8,1.3,1.2.5.3,1,.7,1.5.9.5.3,1.1.5,1.8.7.6.2,1.2.3,1.9.4.6,0,1.3.1,2,.1s.6,0,1,0c.3,0,.7,0,1,0,.3,0,.7,0,1-.2.3,0,.7-.1,1-.2l.8-.2,1-.3v-2.9c-.6.2-1.1.4-1.8.6-.3,0-.5.1-.8.2-.3,0-.5,0-.8.1-.3,0-.5,0-.8,0-.3,0-.5,0-.8,0-.5,0-1,0-1.4,0-.5,0-.9-.2-1.3-.3-.4-.1-.8-.3-1.1-.4-.4-.2-.7-.4-1-.6-.3-.2-.5-.5-.7-.7-.2-.3-.4-.6-.5-.9-.1-.3-.3-.6-.3-1,0-.3-.1-.7-.1-1s0-.5,0-.7c0-.2,0-.4.1-.6,0-.2.1-.4.2-.6.1-.2.2-.4.3-.6.2-.3.4-.5.7-.8.3-.2.6-.5.9-.7.3-.2.7-.4,1.1-.6.4-.2.8-.4,1.2-.5.4-.1.8-.3,1.3-.4.4-.1.9-.2,1.4-.3.9-.2,1.9-.2,2.8-.2s1.1,0,1.6,0c.5,0,1,.1,1.5.2.4,0,.8.2,1.1.3.3.1.7.3.9.4h0v12.4h4.1v-17.4c0-.6,0-1.3-.2-1.9-.1-.6-.4-1.2-.6-1.8-.3-.6-.6-1.1-1.1-1.6-.4-.5-.9-1-1.4-1.4-.5-.4-1.1-.8-1.7-1.1-.6-.3-1.3-.6-2-.8-.7-.2-1.4-.4-2.2-.5-.7-.1-1.5-.2-2.3-.2s-1.4,0-2,.1c-.7,0-1.3.2-2,.4-.6.2-1.3.4-1.8.6Z"/>
      <path id="Panício-2" data-name="Panício" class="cls-2" d="M364.3,125.8l-5.1,8.5h3.2c1.7-2.2,3.4-4.4,5.1-6.6l1.5-1.9h-4.8Z"/>
      <path id="ponto" class="cls-2" d="M412.4,132.6c.1,0,.3-.2.4-.3.1-.1.2-.3.3-.4,0-.1.2-.3.2-.5,0-.2.1-.3.1-.5,0-.2,0-.3,0-.5s0-.4,0-.5c0-.2,0-.3-.1-.5,0-.2-.1-.3-.2-.5,0-.1-.2-.3-.3-.4-.1-.1-.3-.2-.4-.3-.1,0-.3-.2-.5-.2-.2,0-.3-.1-.5-.1-.2,0-.4,0-.5,0s-.4,0-.5,0c-.2,0-.4,0-.5.1-.2,0-.3.1-.5.2-.2,0-.3.2-.4.3-.1.1-.2.3-.4.4-.1.1-.2.3-.3.5,0,.2-.1.3-.2.5,0,.2,0,.4,0,.5s0,.4,0,.5c0,.2,0,.3.2.5,0,.2.2.3.3.5.1.1.2.3.4.4.1.1.3.2.4.3.1,0,.3.2.5.2.2,0,.3.1.5.1.2,0,.4,0,.5,0s.4,0,.5,0c.2,0,.3,0,.5-.1.2,0,.3-.1.5-.2Z"/>
      <path id="mauricio" class="cls-2" d="M402.6,76l-5.1,8.5h3.2c1.5-2,3.1-4.1,4.7-6.1l1.8-2.4h-4.8ZM469.8,109.5c-.5-.4-1-.8-1.5-1.3-.4-.5-.8-1-1.2-1.6-.3-.6-.6-1.2-.9-1.9-.2-.7-.4-1.4-.5-2.1-.1-.7-.2-1.5-.2-2.3s0-1.6.2-2.3c.1-.8.3-1.5.5-2.2.2-.7.5-1.3.9-1.9.3-.6.7-1.1,1.2-1.6.4-.5.9-.9,1.5-1.3.5-.4,1.1-.7,1.7-.9.6-.2,1.3-.4,1.9-.6.7-.1,1.4-.2,2.1-.2s1.4,0,2.1.2c.7.1,1.3.3,1.9.6.6.3,1.2.6,1.7.9.5.4,1,.8,1.5,1.3.4.5.8,1,1.2,1.6.3.6.6,1.2.9,1.9.2.7.4,1.4.5,2.1.1.7.2,1.5.2,2.3s0,1.6-.2,2.3c-.1.8-.3,1.5-.5,2.1-.2.7-.5,1.3-.9,1.9-.3.6-.7,1.1-1.2,1.6-.4.5-.9.9-1.5,1.3-.5.4-1.1.7-1.7.9-.6.2-1.3.4-1.9.6-.7.1-1.4.2-2.1.2s-1.4,0-2.1-.2c-.7-.1-1.3-.3-1.9-.6-.6-.3-1.2-.6-1.7-.9ZM483.6,111.6c.8-.5,1.5-1,2.1-1.7.7-.6,1.2-1.3,1.8-2,.5-.7.9-1.5,1.3-2.3.3-.8.6-1.7.8-2.6.2-.9.3-1.8.3-2.7s0-1.8-.3-2.7c-.2-.9-.4-1.8-.8-2.6-.4-.8-.8-1.6-1.3-2.3-.5-.7-1.1-1.4-1.8-2-.7-.6-1.4-1.2-2.1-1.7-.8-.5-1.6-.9-2.5-1.2-.9-.3-1.8-.6-2.7-.7-.9-.2-1.9-.2-2.9-.2s-1.9,0-2.8.3c-.9.2-1.8.4-2.7.7-.9.3-1.7.7-2.5,1.2-.8.5-1.5,1-2.1,1.7-.7.6-1.2,1.3-1.8,2-.5.7-.9,1.5-1.3,2.3-.3.8-.6,1.7-.8,2.6-.2.9-.3,1.8-.3,2.7s0,1.8.3,2.7c.2.9.4,1.7.8,2.6.4.8.8,1.6,1.3,2.3.5.7,1.1,1.4,1.8,2,.7.6,1.4,1.2,2.2,1.7.8.5,1.6.9,2.5,1.2.9.3,1.8.6,2.7.7.9.2,1.9.3,2.8.3s1.9,0,2.9-.2c.9-.2,1.8-.4,2.7-.7.9-.3,1.7-.7,2.5-1.2ZM447.3,113.3h4.1v-26.7l-4.1,1.5v25.1ZM431.6,113c.5-.2,1-.4,1.4-.6.5-.2.9-.5,1.3-.8.4-.3.8-.6,1.1-.9.3-.3.7-.7.9-1,.3-.4.5-.7.7-1.1l.6-1.2h-2.9l-.2.4c-.1.2-.3.5-.5.7-.2.2-.4.5-.7.7-.3.2-.5.4-.9.6-.3.2-.6.4-1,.5-.4.2-.7.3-1.1.4-.4.1-.8.2-1.2.3-.4,0-.8.1-1.3.2-.4,0-.9,0-1.3,0-.7,0-1.4,0-2.1-.2-.7-.1-1.3-.3-1.9-.6-.6-.3-1.2-.6-1.7-.9-.5-.4-1-.8-1.5-1.3-.4-.5-.8-1-1.2-1.6-.3-.6-.6-1.2-.9-1.9-.2-.7-.4-1.4-.5-2.2-.1-.7-.2-1.5-.2-2.4s0-1.6.2-2.4c.1-.8.3-1.5.5-2.2.2-.7.5-1.3.9-1.9.3-.6.7-1.1,1.2-1.6.4-.5.9-.9,1.5-1.3.5-.4,1.1-.7,1.8-.9.6-.2,1.3-.4,2-.6.7-.1,1.4-.2,2.2-.2s1,0,1.5,0c.5,0,1,.1,1.4.3.5.1.9.2,1.3.4.4.2.8.3,1.1.6.3.2.6.4.8.6.2.2.4.5.6.7.2.2.3.5.4.7,0,.3.1.5.1.8v.8h2.7v-.8c0-.5,0-1-.2-1.4-.1-.5-.3-.9-.6-1.3-.3-.4-.6-.8-1-1.2-.4-.4-.8-.7-1.3-1-.5-.3-1-.5-1.5-.8-.5-.2-1.1-.4-1.7-.6-.6-.2-1.2-.3-1.9-.3-.6,0-1.3-.1-2-.1-1,0-2,0-2.9.2-1,.2-1.9.4-2.7.7-.9.3-1.7.7-2.5,1.2-.8.5-1.5,1-2.2,1.6-.7.6-1.3,1.3-1.8,2-.5.7-1,1.5-1.3,2.3-.4.8-.6,1.7-.8,2.6-.2.9-.3,1.8-.3,2.7s0,1.8.3,2.7c.2.9.5,1.8.8,2.6.4.8.8,1.6,1.3,2.4.5.7,1.1,1.4,1.8,2,.7.6,1.4,1.2,2.2,1.6.8.5,1.6.9,2.5,1.2.9.3,1.8.6,2.7.7.9.2,1.9.2,2.9.2s1.1,0,1.7,0c.6,0,1.1-.1,1.6-.3.5-.1,1-.3,1.5-.4ZM398.3,113.3h4.1v-26.7l-4.1,1.5v25.1ZM378.7,87.7c-.4.2-.8.4-1.2.7-.3.2-.5.4-.8.6-.2.2-.5.4-.7.6l-.6.6v-3.5l-4.1,1.5v25.1h4.1c0-1.8-.1-18,0-18.3.1-.4.3-.8.5-1.1.2-.4.4-.7.7-1.1.2-.3.5-.7.8-1,.3-.3.6-.6.9-.8.3-.2.7-.5,1-.7.4-.2.7-.4,1.1-.5.4-.1.8-.2,1.1-.3.4,0,.8,0,1.2,0s.6,0,.8,0c.3,0,.5.1.8.2.2,0,.5.2.7.3.2.1.4.3.6.4.2.2.3.3.5.5.1.2.3.4.3.6,0,.2.2.4.2.6,0,.2,0,.4,0,.7v.8h2.7v-.8c0-.4,0-.8-.1-1.2,0-.4-.2-.8-.4-1.2-.2-.4-.4-.7-.6-1.1-.2-.3-.5-.6-.8-.9-.3-.3-.6-.5-1-.7-.4-.2-.7-.4-1.2-.5-.4-.1-.8-.2-1.3-.3-.4,0-.9-.1-1.3-.1s-.9,0-1.4.1c-.5,0-.9.2-1.3.3-.4.1-.9.3-1.3.5ZM354.9,88.2c0,1.6,0,17.6,0,17.7-.2.4-.4.7-.7,1-.2.3-.5.6-.8.9-.3.3-.7.6-1,.9-.4.3-.7.5-1.1.8-.4.2-.8.5-1.3.6-.4.2-.9.3-1.3.5-.4.1-.9.2-1.4.3-.5,0-.9,0-1.4,0s-.9,0-1.4-.1c-.4,0-.9-.2-1.3-.3-.4-.1-.8-.3-1.1-.5-.4-.2-.7-.4-1-.7-.3-.3-.6-.6-.8-.9-.2-.3-.4-.6-.6-1-.2-.3-.3-.7-.4-1.1,0-.4-.1-.8-.1-1.2v-18.5l-4.1,1.5v16.4c0,.6,0,1.3.2,1.9.1.6.3,1.2.6,1.8.3.6.6,1.1.9,1.6.4.5.8,1,1.3,1.4.5.4,1,.8,1.5,1.1.6.3,1.2.6,1.8.8.6.2,1.3.4,2,.5.7.1,1.4.2,2.1.2s1.1,0,1.7-.1c.6,0,1.1-.2,1.6-.3.5-.1,1.1-.3,1.6-.5.5-.2,1-.4,1.5-.7.4-.2.7-.4,1-.6.3-.2.7-.5,1-.7l.4-.4.6-.6v3.4h4.1v-26.7l-4.1,1.5ZM306.9,87.9c-.6.2-1.1.5-1.6.8-.5.3-1,.7-1.4,1.1-.4.4-.7.8-1,1.2-.3.4-.5.9-.6,1.4-.1.5-.2.9-.2,1.4v.8h2.7v-.8c0-.3,0-.5.1-.8,0-.3.2-.5.4-.8.2-.3.4-.5.7-.8.3-.2.6-.5.9-.7.4-.2.8-.4,1.2-.6.4-.2.9-.3,1.4-.4.5-.1,1-.2,1.5-.3.5,0,1,0,1.6,0s1.1,0,1.6.1c.5,0,1,.2,1.5.3.5.1.9.3,1.3.5.4.2.8.5,1.1.7.3.3.6.6.9.9.3.3.5.7.7,1,.2.4.3.7.4,1.1,0,.4.1.8.1,1.2v3h-.1c-.3-.1-.6-.2-1-.3-.3,0-.7-.2-1.1-.2-.5,0-1-.1-1.6-.2-.5,0-1.1,0-1.7,0s-1.4,0-2,0c-.7,0-1.4.1-2,.3-.7.1-1.3.3-2,.4-.6.2-1.3.4-1.8.6-.7.2-1.3.5-1.9.9-.6.3-1.1.6-1.6,1-.5.4-.9.8-1.3,1.2-.4.4-.7.8-.9,1.3-.1.2-.2.5-.3.7,0,.2-.2.5-.2.7,0,.2-.1.5-.1.7,0,.3,0,.5,0,.8,0,.5,0,1.1.2,1.5.1.5.3,1,.6,1.5.3.5.6.9,1,1.3.4.4.8.8,1.3,1.2.5.3,1,.7,1.5.9.5.3,1.1.5,1.8.7.6.2,1.2.3,1.9.4.6,0,1.3.1,2,.1s.6,0,1,0c.3,0,.7,0,1,0,.3,0,.7,0,1-.2.3,0,.7-.1,1-.2l.8-.2,1-.3v-2.9c-.6.2-1.1.4-1.8.6-.3,0-.5.1-.8.2-.3,0-.5,0-.8.1-.3,0-.5,0-.8,0-.3,0-.5,0-.8,0-.5,0-1,0-1.4,0-.5,0-.9-.2-1.3-.3-.4-.1-.8-.3-1.1-.5-.4-.2-.7-.4-1-.6-.3-.2-.5-.5-.7-.7-.2-.3-.4-.6-.5-.9-.1-.3-.3-.6-.3-1,0-.3-.1-.7-.1-1s0-.5,0-.7c0-.2,0-.4.1-.6,0-.2.1-.4.2-.6.1-.2.2-.4.3-.6.2-.3.4-.5.7-.8.3-.2.6-.5.9-.7.3-.2.7-.4,1.1-.6.4-.2.8-.4,1.2-.5.4-.1.8-.3,1.3-.4.4-.1.9-.2,1.4-.3.9-.2,1.9-.2,2.8-.2s1.1,0,1.6,0c.5,0,1,.1,1.5.2.4,0,.8.2,1.1.3.3.1.7.3.9.4h0v12.4h4.1v-17.4c0-.6,0-1.3-.2-1.9-.1-.6-.4-1.2-.6-1.8-.3-.6-.6-1.1-1.1-1.6-.4-.5-.9-1-1.4-1.4-.5-.4-1.1-.8-1.7-1.1-.6-.3-1.3-.6-2-.8-.7-.2-1.4-.4-2.2-.5-.7-.1-1.5-.2-2.3-.2s-1.4,0-2,.1c-.7,0-1.3.2-2,.4-.6.2-1.3.4-1.8.6ZM285.8,77.5l-14.6,21.7-14.6-21.7h-4v35.8h2.9v-30.3l14.2,21h1.7l14.2-21v30.3h4.1v-35.8h-3.9ZM451,82.9c.1,0,.3-.2.4-.3.1-.1.2-.2.3-.4,0-.1.2-.3.2-.5,0-.2.1-.3.1-.5,0-.2,0-.3,0-.5s0-.4,0-.5c0-.2,0-.3-.1-.5,0-.2-.1-.3-.2-.5,0-.1-.2-.3-.3-.4-.1-.1-.3-.2-.4-.3-.1,0-.3-.2-.5-.2-.2,0-.3-.1-.5-.1-.2,0-.4,0-.5,0s-.4,0-.5,0c-.2,0-.4,0-.5.1-.2,0-.3.1-.5.2-.2,0-.3.2-.4.3-.1.1-.3.3-.4.4-.1.1-.2.3-.3.5,0,.2-.1.3-.2.5,0,.2,0,.4,0,.5s0,.4,0,.5c0,.2,0,.3.2.5,0,.2.2.3.3.5.1.1.2.3.4.4.1.1.3.2.4.3.1,0,.3.2.5.2.2,0,.3.1.5.1.2,0,.4,0,.5,0s.4,0,.5,0c.2,0,.3,0,.5-.1.2,0,.3-.1.5-.2Z"/>
      <path id="ponto-2" data-name="ponto" class="cls-2" d="M451,82.9c.1,0,.3-.2.4-.3.1-.1.2-.2.3-.4,0-.1.2-.3.2-.5,0-.2.1-.3.1-.5,0-.2,0-.3,0-.5s0-.4,0-.5c0-.2,0-.3-.1-.5,0-.2-.1-.3-.2-.5,0-.1-.2-.3-.3-.4-.1-.1-.3-.2-.4-.3-.1,0-.3-.2-.5-.2-.2,0-.3-.1-.5-.1-.2,0-.4,0-.5,0s-.4,0-.5,0c-.2,0-.4,0-.5.1-.2,0-.3.1-.5.2-.2,0-.3.2-.4.3-.1.1-.3.3-.4.4-.1.1-.2.3-.3.5,0,.2-.1.3-.2.5,0,.2,0,.4,0,.5s0,.4,0,.5c0,.2,0,.3.2.5,0,.2.2.3.3.5.1.1.2.3.4.4.1.1.3.2.4.3.1,0,.3.2.5.2.2,0,.3.1.5.1.2,0,.4,0,.5,0s.4,0,.5,0c.2,0,.3,0,.5-.1.2,0,.3-.1.5-.2Z"/>
      <path id="_xB4_" class="cls-2" d="M402.6,76l-5.1,8.5h3.2c1.5-2,3.1-4.1,4.7-6.1l1.8-2.4h-4.8Z"/>
      <path id="clinica" class="cls-2" d="M393.8,64.5c-.7.4-1.5.6-2.3.8-.8.2-1.6.3-2.5.4-.9,0-1.7,0-2.6-.1-.8-.1-1.7-.3-2.4-.6-1.6-.6-2.9-1.4-3.9-2.4-1.1-1.1-1.9-2.4-2.5-3.8-.2-.6-.4-1.2-.5-1.8-.1-.6-.2-1.2-.2-1.9,0-.6,0-1.3.2-1.9.1-.6.3-1.2.5-1.8.5-1.4,1.3-2.7,2.5-3.8,1-1,2.4-1.9,3.9-2.5,1.1-.4,2.4-.6,3.7-.7,1.3,0,2.6,0,3.9.3,1.1.3,2.2.7,3.1,1.2.8.5,1.5,1.2,1.9,2.1l.2.3-1.3.6-1.2.7v-.4c-.2-.1-.3-.2-.3-.3,0-.1-.2-.2-.3-.3-.1-.1-.2-.2-.4-.3-.1-.1-.3-.2-.5-.3-.7-.4-1.6-.7-2.5-.9-.9-.2-1.9-.2-2.9-.1-1,.1-1.9.4-2.8.7-.8.4-1.5.8-2.1,1.4-.7.7-1.3,1.6-1.6,2.6-.4,1-.6,2.2-.6,3.3,0,1.1.2,2.3.6,3.3.4,1,.9,1.9,1.6,2.6l.3.3.3.3c.7.6,1.6,1,2.5,1.3.9.3,1.9.4,2.9.4,1,0,2-.2,2.9-.6.9-.3,1.7-.8,2.3-1.4l.3-.3.5-.6,2,1.8-.2.3c-.2.2-.3.4-.5.6-.2.2-.4.4-.6.6-.2.2-.5.3-.7.5-.3.2-.6.3-.9.5M363.3,65.5h-2.4v-20.9h3.5v20.9h-1.1ZM343.9,59.5v-14.9h2.8v20.9h-2.5l-13-16.4v16.4h-2.8v-20.9h3.7l11.8,14.9ZM313.2,65.5h-2.4v-20.9h3.5v20.9h-1.1ZM286.9,45.7v17.2h11.6v2.7h-15.1v-20.9h3.5v1.1ZM412.5,54.8c.4,0,.8,0,1.2,0,.4,0,.8,0,1.2.1.5,0,.9.2,1.4.3.4.1.9.3,1.3.4h.2c0,0-2.9-6.1-2.9-6.1l-2.5,5.3ZM420.7,62.1c-.3-.5-.5-.9-.8-1.3-.3-.4-.6-.8-1-1.1-.3-.3-.7-.6-1.1-.8-.4-.2-.8-.4-1.2-.6-.4-.2-.8-.3-1.2-.4-.4-.1-.9-.2-1.4-.2-.5,0-.9,0-1.4,0-.5,0-.9,0-1.4,0l-3.7,7.8h-3.1l4.7-10.1v-.3s.1,0,.1,0l4.9-10.5h2.2v.2c2.3,4.6,4.5,9.3,6.6,14l3.1,6.7h-3.8l-1.6-3.4ZM268.2,64.5c-.7.4-1.5.6-2.3.8-.8.2-1.6.3-2.5.4-.9,0-1.7,0-2.5-.1-.8-.1-1.7-.3-2.4-.6-1.6-.6-2.9-1.4-3.9-2.5-1.1-1.1-1.9-2.4-2.5-3.8-.2-.6-.4-1.2-.5-1.8-.1-.6-.2-1.2-.2-1.9,0-.6,0-1.3.2-1.9.1-.6.3-1.2.5-1.8.5-1.4,1.3-2.7,2.5-3.8,1-1,2.4-1.9,3.9-2.4,1-.4,2.4-.6,3.7-.7,1.3,0,2.6,0,3.9.3,1.1.2,2.2.7,3.1,1.2.8.5,1.5,1.2,1.9,2.1l.2.3-1.3.6-1.1.7-.2-.4c-.2-.4-.4-.7-.7-.9-.3-.3-.8-.5-1.2-.7-.6-.2-1.2-.4-1.8-.5-.7-.1-1.4-.2-2-.2-1.2,0-2.3.2-3.3.6-1,.4-1.9.9-2.6,1.6-.7.7-1.3,1.6-1.6,2.6-.4,1-.6,2.1-.6,3.3s.2,2.3.6,3.3c.4,1,.9,1.9,1.6,2.6.7.7,1.5,1.3,2.5,1.7.9.4,2,.6,3.2.6s1.4,0,2-.2c.6-.1,1.2-.3,1.7-.6.5-.3,1-.6,1.5-1,.4-.4.8-.8,1.2-1.3l.2-.3,2.4,1.2-.2.3c-.2.3-.4.6-.6.9-.2.3-.5.6-.7.8-.3.3-.6.5-.9.7-.3.2-.7.5-1.2.7Z"/>
      <path id="_xB4_-2" data-name="_xB4_" class="cls-2" d="M310.9,42.5l3.1-5.2h3.6l-4.4,5.9h-2.7l.4-.7Z"/>
    </g>
  </g>
</svg>