<?xml version="1.0" encoding="UTF-8"?>
<svg xmlns="http://www.w3.org/2000/svg" version="1.1" viewBox="0 0 250 200">
  <defs>
    <style>
      .cls-1 {
        fill-rule: evenodd;
      }

      .cls-1, .cls-2 {
        fill: white;
      }
    </style>
  </defs>
  <!-- Generator: Adobe Illustrator 29.0.0, SVG Export Plug-In . SVG Version: 1.2.0 Build 9)  -->
  <g>
    <g id="Layer_1">
      <path id="M" class="cls-2" d="M139.2,179.3c.8,1.1,1.6,2.2.5,3.3-1.3,1.2-3.2.3-4.3-.8-4-3.7-5.4-9.5-5.5-16h0V57.5l-30.5,50.7-2.2,3.6-21,35h-4L15.5,59.1v119.1h-5.4V46.5h6.5l58.5,91.7,16.9-28.2,2.2-3.6,35.9-60h5.4v90.6s-1.4,31.6,3.6,42.1Z"/>
      <path id="P" class="cls-2" d="M159.7,74.7c-1.5-1-4.1-.7-5.7-.2l-10.7,1.4c1.5-3.1,5.7-5.5,8.9-6.5,4.3-1.4,9.1-1.2,12.9,1.4,6.3,4.6,3.8,11.4.9,17.1-2.7,5.4-5.4,10.8-8,16.3l-1.9,4.1-1.5,3.3c-8,17.6-26.2,57.7-15.3,67.7,1,.9,1.6,2.2.5,3.3-1.3,1.2-3.2.3-4.3-.8-4-3.7-5.5-16-5.5-16-.6-9.6,5.7-28.7,5.7-28.7.2-.6.4-1.2.6-1.8,3.7-10.9,8.2-21.5,13.1-32l2-4.3c2.2-4.7,4.5-9.3,6.9-13.9,1.2-2.4,4.3-8.3,1.5-10.5"/>
      <path id="P2" class="cls-2" d="M159.7,74.7,153.9,74.4c-6.9,2.3-9.7,10.1-7.8,16.5.9,3.2,2.8,5.7,5.1,8.1l6.6,5c1.2.8,2.9,1.6,4.6,2.4,7.6,3.3,15.6,4.8,23.8,4.5,59-1.8,49.3-96-42.9-86.7-28.2,2.8-63.2,16.4-68.7,46.7-1.5,8.5,1,17.6,6.1,24.7,3.6,5,8.2,8.6,13.4,10.9l5.1,1.8c5.3,1.4,11.1,1.5,16.8.4,3.8-.8,4.4,3,1.3,3.7-6.9,1.5-13.9,1.4-20.3-.4l-5.1-1.8c-5.9-2.6-11.1-6.7-15.3-12.4-6-8.1-9-18.7-7.2-28.6,5.8-32.3,42.3-46.7,72.4-50,40.6-4.5,67.1,9.5,80.1,28.1,9.1,13.1,12.5,30.4,5.9,45.3-6,13.5-19.7,23.4-40.9,23.5-9.4.2-19-1.8-27.4-5.8-1.4-.7-2.7-1.4-3.6-1.9l-6.7-4.8c-3.8-3.4-6.8-7.2-8.2-12.1-1.5-5.1-.9-11,2.2-15.4,1.5-3.1,5.7-5.5,8.9-6.5,4.3-1.4,9.1-1.2,12.9,1.4l-11.1,3.7Z"/>
      <path id="coluna" class="cls-1" d="M146,182c-1.1,0-1.9-.8-1.9-1.9s.9-1.9,1.9-1.9,1.9.8,1.9,1.9-.9,1.9-1.9,1.9Z"/>
      <path id="coluna-2" data-name="coluna" class="cls-1" d="M144.4,173c-1.5,0-2.7-1.2-2.7-2.6s1.2-2.6,2.7-2.6,2.7,1.2,2.7,2.6-1.2,2.6-2.7,2.6Z"/>
      <path id="coluna-3" data-name="coluna" class="cls-1" d="M146.8,162.7c-1.9,0-3.4-1.5-3.4-3.3s1.5-3.3,3.4-3.3,3.4,1.5,3.4,3.3-1.5,3.3-3.4,3.3Z"/>
      <path id="coluna-4" data-name="coluna" class="cls-1" d="M149.3,144c2.2,0,4,1.8,4,4s-1.8,4-4,4-4-1.8-4-4,1.8-4,4-4Z"/>
      <path id="coluna-5" data-name="coluna" class="cls-1" d="M152.6,133.1c1.9,0,3.4,1.5,3.4,3.3s-1.5,3.3-3.4,3.3-3.4-1.5-3.4-3.3,1.5-3.3,3.4-3.3Z"/>
      <path id="coluna-6" data-name="coluna" class="cls-1" d="M156.2,123.6c1.5,0,2.7,1.2,2.7,2.6s-1.2,2.6-2.7,2.6-2.7-1.2-2.7-2.6,1.2-2.6,2.7-2.6"/>
      <path id="coluna-7" data-name="coluna" class="cls-1" d="M159.9,116c1.1,0,1.9.8,1.9,1.9s-.9,1.9-1.9,1.9-1.9-.8-1.9-1.9.9-1.9,1.9-1.9Z"/>
    </g>
  </g>
</svg>